<?xml version="1.0" encoding="utf-8"?>
<!-- Generator: Adobe Illustrator 19.2.1, SVG Export Plug-In . SVG Version: 6.00 Build 0)  -->
<svg version="1.1" id="Layer_1" xmlns="http://www.w3.org/2000/svg" xmlns:xlink="http://www.w3.org/1999/xlink" x="0px" y="0px"
	 viewBox="0 0 1450 2102.2" style="enable-background:new 0 0 1450 2102.2;" xml:space="preserve">
<style type="text/css">
	.st0{fill:#818285;}
	.st1{fill:#FFFFFF;}
	.st2{fill:#904C8E;}
	.st3{font-family:'MuseoSlab-500';}
	.st4{font-size:48.8632px;}
	.st5{font-size:71.5072px;}
	.st6{letter-spacing:1;}
	.st7{fill:#939598;}
	.st8{fill:#6E6F72;}
	.st9{fill:#BDBEC0;}
	.st10{fill:#404040;}
	.st11{fill:#231F20;}
	.st12{font-size:30.5138px;}
	.st13{font-size:94.3155px;}
	.st14{fill-rule:evenodd;clip-rule:evenodd;fill:#904C8E;}
	.st15{font-family:'Museo-300';}
	.st16{font-size:24.1337px;}
	.st17{font-size:102.6374px;}
	.st18{letter-spacing:-1;}
	.st19{font-size:33.2878px;}
	.st20{fill:#A8AAAD;}
	.st21{font-size:110.9594px;}
	.st22{fill:#3D342A;}
	.st23{fill:#534941;}
	.st24{font-size:103.747px;}
	.st25{fill:#BCBEC0;}
	.st26{fill:#904B8D;}
	.st27{fill:#904C8D;}
	.st28{font-size:17.9737px;}
	.st29{font-size:20.4311px;}
	.st30{font-size:15.7198px;}
	.st31{font-size:12.3131px;}
	.st32{fill:none;}
</style>
<rect class="st0" width="1446.5" height="2102.2"/>
<g>
	<rect x="49.2" y="1045.6" class="st1" width="717.5" height="384.2"/>
</g>
<g>
	<rect x="625.2" y="1470" class="st1" width="770.1" height="576.7"/>
</g>
<rect x="676.4" y="644" class="st1" width="718.9" height="362.9"/>
<rect x="49.2" y="305.1" class="st1" width="1349.8" height="301.4"/>
<rect x="49.2" y="644.9" class="st1" width="580" height="362.4"/>
<rect x="815.3" y="1045.6" class="st1" width="580" height="384.2"/>
<rect x="49.2" y="1467" class="st1" width="531.2" height="579.7"/>
<g>
	<rect x="49.2" y="43.9" class="st2" width="1346.6" height="232.2"/>
</g>
<text transform="matrix(1 0 0 1 290.5098 134.2766)"><tspan x="0" y="0" class="st1 st3 st4">HELPING SMALL CREDIT UNIONS</tspan><tspan x="0" y="85.8" class="st1 st3 st5 st6">ACHIEVE BIG RESULTS!</tspan></text>
<g>
	<g>
		<g>
			<path class="st2" d="M666.9,1127.6h11.1c1.2,0,2.1,1,2.1,2.1V1241c0,1.2,1,2.1,2.1,2.1h30.5c1.2,0,2.1-1,2.1-2.1v-111.3
				c0-1.2,1-2.1,2.1-2.1h11.1c1.8,0,2.8-2,1.7-3.4l-30.7-41.5c-0.9-1.2-2.6-1.2-3.4,0l-30.7,41.5
				C664.2,1125.6,665.2,1127.6,666.9,1127.6"/>
		</g>
	</g>
	<g>
		<g>
			<path class="st7" d="M592.6,1243.1h30.5c1.2,0,2.1-1,2.1-2.1v-67.3c0-1.2-1-2.1-2.1-2.1h-30.5c-1.2,0-2.1,1-2.1,2.1v67.3
				C590.4,1242.2,591.4,1243.1,592.6,1243.1"/>
		</g>
	</g>
	<g>
		<g>
			<path class="st8" d="M637.4,1243.1h30.5c1.2,0,2.1-1,2.1-2.1v-87.4c0-1.2-1-2.1-2.1-2.1h-30.5c-1.2,0-2.1,1-2.1,2.1v87.4
				C635.2,1242.2,636.2,1243.1,637.4,1243.1"/>
		</g>
	</g>
	<g>
		<g>
			<path class="st9" d="M547.7,1243.1h30.5c1.2,0,2.1-1,2.1-2.1v-47.2c0-1.2-1-2.1-2.1-2.1h-30.5c-1.2,0-2.1,1-2.1,2.1v47.2
				C545.6,1242.2,546.5,1243.1,547.7,1243.1"/>
		</g>
	</g>
	<g>
		<g>
			<path class="st10" d="M730.4,1251.6H547.7c-1.2,0-2.1,1-2.1,2.1v13.1c0,1.2,1,2.1,2.1,2.1h182.7c1.2,0,2.1-1,2.1-2.1v-13.1
				C732.5,1252.5,731.6,1251.6,730.4,1251.6"/>
		</g>
	</g>
</g>
<g>
	<g>
		<text transform="matrix(1 0 0 1 107.3975 1632.2247)" class="st11 st3 st12">RETURN ON INVESTMENT </text>
	</g>
</g>
<g>
	<text transform="matrix(1 0 0 1 163.8164 1577.0597)" class="st2 st3 st13">1,674%</text>
</g>
<g>
	<path class="st14" d="M352.8,1713.7l-0.2,0.2c-2.6,2.6-5.6,4.8-8.9,6.5c2.6,1.4,4.9,3,7,4.8c2,1.7,2.3,4.7,0.6,6.8
		c-1.7,2-4.7,2.3-6.8,0.6c-5-4.2-12.4-7.3-20.1-8.9c-7.9-1.6-16.2-1.7-22.8,0.1c-2.6,0.7-5.2-0.8-5.9-3.3c-0.7-2.5,0.8-5.2,3.3-5.9
		c1.4-0.4,2.9-0.7,4.4-1c-2.8-3-5.2-6.4-6.8-10.2c-7.9,1.2-15.5,3.4-22.6,6.5l-25.7-8.5c-7.1-2.5-9.8,2.8-7.9,8.3
		c2.1,6.2,4.1,12.7,6.1,19.2c-4.7,4.8-8.8,10.1-12.4,15.8c-9.9,16-12.1,26.3-27.4,28.1c-3.8,0.4-6.9,3.1-6.9,6.9v21.7
		c0,3.8,2.7,6.4,6.9,6.9c12.2,2,16,13.7,25.4,27.5c5.6,8.2,13.5,14.1,24.5,16.4v3c0,3.1,2.6,5.7,5.7,5.7h26.1c3.1,0,5.7-2.6,5.7-5.7
		v-2h30.8v2c0,3.1,2.6,5.7,5.7,5.7h26.1c3.1,0,5.7-2.6,5.7-5.7v-2.9c26.7-5.2,35.5-33.4,35.5-61.4c0-10.6-1.8-20.7-5.2-30
		c3.1,0.2,6.2-0.4,8.9-1.8c3-1.5,5.5-4,7.2-7.3c0.2-0.4,0.4-0.7,0.5-1.1c2.5,0.3,4.9,0.2,7.2-0.4c0.6-0.2,1.3-0.4,2-0.7
		c1.8-0.8,2.7-2.9,1.9-4.7c-0.8-1.8-2.9-2.7-4.7-1.9c-0.3,0.1-0.6,0.2-1,0.3c-1.1,0.3-2.4,0.4-3.7,0.3c0.1-1.9,0.1-4.1-0.3-6.3
		c-0.9-5.7-3.7-8.9-6.8-10c-1.5-0.6-3.1-0.7-4.5-0.4c-1.4,0.3-2.8,0.9-3.9,1.9c-2.4,2.1-3.8,5.5-2.8,9.5c0.1,0.5,0.3,1.1,0.6,1.7
		c1.6,3.9,5,6.9,9,8.8c-1,1.8-2.4,3.2-4,4c-1.7,0.8-3.6,1.2-5.6,0.9c-1.2-0.1-2.4-0.5-3.5-1C381.3,1736.1,368.6,1722.6,352.8,1713.7
		 M328.2,1662.1c-15.1,0-27.4,12.2-27.4,27.3c0,15.1,12.2,27.4,27.4,27.4c15.1,0,27.3-12.3,27.3-27.4
		C355.6,1674.4,343.3,1662.1,328.2,1662.1 M329.8,1671.5c0-0.9-0.7-1.6-1.5-1.6c-0.9,0-1.6,0.7-1.6,1.6v1.8
		c-5.4,0.5-10.6,3.4-10.7,9.2c-0.1,5.7,5.2,8.2,10.6,9.6c2.2,0.6,6.6,1.4,6.6,4.3c0,1.6-1.6,3-3.5,3.4v-5.3
		c-0.8-0.3-1.8-0.6-2.6-0.8l-0.5-0.1v6c-1.2-0.5-2.2-1.5-2.8-3.2c-0.3-0.8-0.7-1.6-2.1-1.3l-4.7,0.5c-1.1,0.1-2.4,0.4-1.7,2.4
		c1,3,3,5.2,6.2,6.4c1.5,0.6,3.3,1,5.2,1.1v1.8c0,0.8,0.7,1.5,1.6,1.5c0.8,0,1.5-0.7,1.5-1.5v-1.8c5.9-0.5,11.5-3.6,11.5-10.2
		c0.1-11.7-17.2-8.3-17.2-13.9c0-1.3,1.1-2.3,2.5-2.7v3.9c0.7,0.4,1.8,0.7,3.1,1.1v-4.6c0.7,0.3,1.3,0.8,1.8,1.5
		c0.9,1.2,1.1,1.5,2.7,1.3l4.6-0.7c1-0.2,1.4-0.7,1.1-1.6c-0.6-1.6-1.6-3-2.9-4c-1.8-1.4-4.4-2.2-7.3-2.4V1671.5z M403.9,1741.3
		c-0.1-2.5-0.5-4.2-0.9-5.3c-1.2-3.3-4.6-2.1-3,1.3C401.1,1739.6,403.9,1741.3,403.9,1741.3"/>
</g>
<g>
	<text transform="matrix(1 0 0 1 135.8311 1209.6339)" class="st2 st15 st13">32.65%</text>
	<text transform="matrix(1 0 0 1 95.2168 1259.838)"><tspan x="0" y="0" class="st11 st15 st12">R</tspan><tspan x="18.3" y="0" class="st11 st15 st12">ETU</tspan><tspan x="76.2" y="0" class="st11 st15 st12">R</tspan><tspan x="94.5" y="0" class="st11 st15 st12">N </tspan><tspan x="126" y="0" class="st11 st15 st12">O</tspan><tspan x="149.9" y="0" class="st11 st15 st12">N INVESTMENT </tspan></text>
	<text transform="matrix(1 0 0 1 153.7061 1343.2921)"><tspan x="0" y="0" class="st11 st15 st16">A $53 million credit union grew its total loans by</tspan><tspan x="15.1" y="33.3" class="st11 st15 st16">32.65% in the first six months with TwoScore.</tspan></text>
</g>
<g>
	<g>
		<g>
			<rect x="722.7" y="788.5" class="st9" width="196.7" height="51.4"/>
		</g>
	</g>
	<g>
		<path class="st2" d="M872,823.3h-6c-5.3,0-9.6-4.9-9.6-10.9c0-6,4.3-10.9,9.6-10.9h6c5.3,0,9.6,4.9,9.6,10.9
			C881.6,818.3,877.3,823.3,872,823.3 M823.9,823.3h-6c-5.3,0-9.6-4.9-9.6-10.9c0-6,4.3-10.9,9.6-10.9h6c5.3,0,9.6,4.9,9.6,10.9
			C833.5,818.3,829.2,823.3,823.9,823.3 M775.8,823.3h-6c-5.3,0-9.6-4.9-9.6-10.9c0-6,4.3-10.9,9.6-10.9h6c5.3,0,9.6,4.9,9.6,10.9
			C785.4,818.3,781.1,823.3,775.8,823.3 M898.5,741.4H743.1c-14,0-24.9,11.6-24.9,25.6v86.9c0,13.8,11.1,25.1,24.7,25.3v28.7
			l39.1-29.1h116.5c14,0,25.3-10.9,25.3-24.9V767C923.8,753,912.5,741.4,898.5,741.4"/>
	</g>
</g>
<text transform="matrix(1 0 0 1 957.7832 775.9943)"><tspan x="0" y="0" class="st2 st3 st17">263</tspan><tspan x="179.9" y="0" class="st2 st3 st17 st18">.</tspan><tspan x="204.8" y="0" class="st2 st3 st17">47% </tspan></text>
<text transform="matrix(1 0 0 1 1063.6367 815.9416)"><tspan x="0" y="0" class="st11 st3 st19">R</tspan><tspan x="23.1" y="0" class="st11 st3 st19">O</tspan><tspan x="50.3" y="0" class="st11 st3 st19">I F</tspan><tspan x="90.5" y="0" class="st11 st3 st19">R</tspan><tspan x="113.7" y="0" class="st11 st3 st19">O</tspan><tspan x="140.8" y="0" class="st11 st3 st19">M </tspan><tspan x="-35.4" y="39.9" class="st11 st3 st19">SOCIAL ME</tspan><tspan x="154" y="39.9" class="st11 st3 st19">D</tspan><tspan x="179.8" y="39.9" class="st11 st3 st19">IA</tspan><tspan x="-73.4" y="79.9" class="st11 st3 st19">L</tspan><tspan x="-53.3" y="79.9" class="st11 st3 st19">O</tspan><tspan x="-26.4" y="79.9" class="st11 st3 st19">AN P</tspan><tspan x="55.5" y="79.9" class="st11 st3 st19">R</tspan><tspan x="78.7" y="79.9" class="st11 st3 st19">O</tspan><tspan x="105.8" y="79.9" class="st11 st3 st19">M</tspan><tspan x="137.4" y="79.9" class="st11 st3 st19">OT</tspan><tspan x="186.9" y="79.9" class="st11 st3 st19">IO</tspan><tspan x="226.6" y="79.9" class="st11 st3 st19">N</tspan></text>
<text transform="matrix(1 0 0 1 1066.6973 935.884)"><tspan x="0" y="0" class="st11 st15 st16">From a $44 million</tspan><tspan x="0.5" y="29" class="st11 st15 st16">client credit union.</tspan></text>
<g>
	<path class="st2" d="M113.6,491.9c1.1,2.6,3.7,4.2,6.5,4.2h4.2c-0.6-2.4-1-4.8-1-7.4c0-16.2,13.2-29.4,29.4-29.4
		c16.2,0,29.4,13.2,29.4,29.4c0,2.5-0.4,5-1,7.4h119.6c-0.6-2.4-1-4.8-1-7.4c0-16.2,13.2-29.4,29.4-29.4c16.2,0,29.4,13.2,29.4,29.4
		c0,2.5-0.4,5-1,7.4h19.7V496l3.7,0.1c2.5,0.1,4.6-2,4.6-4.5V473c0-2.6-2-4.7-4.6-4.7l-3.7-0.1v-3.4c-14.5-32.6-44.3-52.3-65.8-59
		c-12.3-3.9-25.5-6.6-39.2-6.6c-32.3,0-46.3,3.5-55.3,7.6c-15.8,5.1-39.4,20.4-51.7,30.6c-29,1.3-49.2,11.7-59.4,28.1
		c-1.5,2.4-1.4,5.5-0.3,8.1L113.6,491.9z M270.8,454.8h-16.1c-1.5,0-2.7-1.2-2.7-2.7c0-1.5,1.2-2.7,2.7-2.7h16.1
		c1.5,0,2.7,1.2,2.7,2.7C273.5,453.6,272.3,454.8,270.8,454.8 M287.9,415.7c17.2,3.7,31.5,11.1,42.8,20.8c1.3,1.1,0.3,3.2-1.4,3.2
		H300c-2.8,0-5.4-1.6-6.6-4.2l-8.1-16.5C284.4,417.2,286,415.3,287.9,415.7 M201.2,432.4c16.5-12.3,32.3-19,62.5-19c0.4,0,0.7,0,1,0
		c2.9,0,5.4,1.9,6.6,4.5l8.6,17.9c0.9,1.9-0.5,4.2-2.6,4.2h-75.5c-1.6,0-2.9-1.3-2.9-2.9C198.8,435.3,199.7,433.5,201.2,432.4
		 M110.9,466.5c1.4-2.3,3.9-6,7.4-8.6c1-0.7,2.3,0,2.4,1.2c0.4,3.9,0.3,11.2-5.6,14.9c-1.1,0.7-2.5,0.1-3.1-1.1l-1.2-2.3
		C110.2,469.3,110.2,467.8,110.9,466.5"/>
	<path class="st20" d="M152.7,465.3c-13,0-23.5,10.5-23.5,23.5c0,2.6,0.4,5,1.2,7.4c3.1,9.4,11.9,16.2,22.3,16.2
		c10.4,0,19.3-6.8,22.3-16.2c0.8-2.3,1.2-4.8,1.2-7.4C176.2,475.8,165.7,465.3,152.7,465.3 M163.9,496.2c-2.4,3.7-6.5,6.1-11.3,6.1
		c-4.7,0-8.8-2.4-11.3-6.1c-1.4-2.1-2.2-4.7-2.2-7.4c0-7.4,6-13.5,13.5-13.5c7.4,0,13.5,6,13.5,13.5
		C166.1,491.5,165.3,494,163.9,496.2"/>
	<path class="st20" d="M329.1,465.3c-13,0-23.5,10.5-23.5,23.5c0,2.6,0.4,5,1.2,7.4c3.1,9.4,11.9,16.2,22.3,16.2
		c10.4,0,19.3-6.8,22.3-16.2c0.8-2.3,1.2-4.8,1.2-7.4C352.7,475.8,342.1,465.3,329.1,465.3 M340.4,496.2c-2.4,3.7-6.5,6.1-11.3,6.1
		c-4.7,0-8.9-2.4-11.3-6.1c-1.4-2.1-2.2-4.7-2.2-7.4c0-7.4,6-13.5,13.5-13.5c7.4,0,13.5,6,13.5,13.5
		C342.6,491.5,341.8,494,340.4,496.2"/>
</g>
<text transform="matrix(1 0 0 1 156.8262 755.8293)" class="st2 st3 st21">23.91%</text>
<text transform="matrix(1 0 0 1 110.9229 803.6271)" class="st11 st3 st19 st18">LOAN PORTFOLIO GROWTH</text>
<g>
	<text transform="matrix(1 0 0 1 293.8145 883.1838)"><tspan x="0" y="0" class="st11 st15 st16">A $27 million credit union </tspan><tspan x="9.5" y="33.3" class="st11 st15 st16">client grew its total loan </tspan><tspan x="-5.2" y="66.6" class="st11 st15 st16">portfolio by 23.91% in 2016.</tspan></text>
</g>
<text transform="matrix(1 0 0 1 902.0908 1160.2433)" class="st2 st3 st21">385.13%</text>
<text transform="matrix(1 0 0 1 871.9014 1208.0431)" class="st11 st3 st19 st18">MORTGAGE LOAN GROWTH</text>
<g>
	<text transform="matrix(1 0 0 1 865.6738 1287.5968)"><tspan x="0" y="0" class="st11 st15 st16">A $26 million credit union </tspan><tspan x="-17.4" y="33.3" class="st11 st15 st16">achieved its annual mortgage</tspan><tspan x="55.9" y="66.6" class="st11 st15 st16">goal by 385.13%.</tspan></text>
</g>
<g>
	<path class="st0" d="M125.6,855.2c-29.5,29.5-29.5,77.4,0,106.9c29.5,29.5,77.4,29.5,106.9,0c29.5-29.5,29.5-77.4,0-106.9
		C203,825.7,155.1,825.7,125.6,855.2"/>
	<path class="st1" d="M136.3,866c-23.6,23.6-23.6,61.9,0,85.5c23.6,23.6,61.9,23.6,85.5,0c23.6-23.6,23.6-61.9,0-85.5
		C198.2,842.4,159.9,842.4,136.3,866"/>
	<path class="st20" d="M146.7,876.4c-17.8,17.8-17.8,46.8,0,64.6c17.8,17.8,46.8,17.8,64.6,0c17.8-17.8,17.8-46.8,0-64.6
		C193.5,858.6,164.6,858.6,146.7,876.4"/>
	<path class="st1" d="M157.8,887.5c-11.7,11.7-11.7,30.8,0,42.5c11.7,11.7,30.8,11.7,42.5,0c11.7-11.7,11.7-30.8,0-42.5
		C188.6,875.7,169.5,875.7,157.8,887.5"/>
	<path class="st2" d="M168.4,898c-5.9,5.9-5.9,15.5,0,21.4c5.9,5.9,15.5,5.9,21.4,0c5.9-5.9,5.9-15.5,0-21.4
		C183.8,892.1,174.3,892.1,168.4,898"/>
	<path class="st0" d="M125.6,962.2L125.6,962.2c-0.5-0.5-1.1-1.1-1.6-1.6c-13.7-14.5-20.6-33.2-20.6-51.8c0-18.6,6.8-37.3,20.5-51.8
		l10.7,10.7c-22,23.7-21.4,60.7,1.6,83.8L125.6,962.2"/>
	<path class="st1" d="M136.3,951.4L136.3,951.4c-23-23-23.6-60.1-1.6-83.8l10.4,10.4c-16.2,17.9-15.7,45.6,1.6,62.9L136.3,951.4"/>
	<path class="st20" d="M146.7,941L146.7,941c-17.3-17.3-17.8-45-1.6-62.9l11.1,11.1c-10.1,11.8-9.6,29.6,1.6,40.8L146.7,941"/>
	<path class="st1" d="M157.8,930L157.8,930c-11.2-11.2-11.7-29-1.6-40.8l10.6,10.6c-4.3,5.9-3.8,14.3,1.5,19.6L157.8,930"/>
	<path class="st2" d="M168.4,919.4L168.4,919.4c-5.3-5.4-5.9-13.7-1.5-19.6l10.6,10.6L168.4,919.4"/>
	<path class="st0" d="M221.8,866L221.8,866c-11.8-11.8-27.3-17.7-42.7-17.7c-14.7,0-29.4,5.3-40.9,16l-10.7-10.7
		c14.5-13.6,33.1-20.4,51.7-20.4c4.2,0,8.5,0.4,12.7,1.1c14.5,2.5,28.5,9.2,39.8,20.1c0.3,0.3,0.7,0.6,1,1L221.8,866"/>
	<path class="st1" d="M211.4,876.4L211.4,876.4c-8.9-8.9-20.6-13.4-32.3-13.4c-10.9,0-21.8,3.9-30.5,11.7l-10.4-10.4
		c11.5-10.6,26.2-16,40.9-16c15.5,0,30.9,5.9,42.7,17.7L211.4,876.4"/>
	<path class="st20" d="M200.3,887.5L200.3,887.5c-5.9-5.9-13.6-8.8-21.3-8.8c-6.9,0-13.8,2.4-19.4,7.1l-11.1-11.1
		c8.7-7.8,19.6-11.7,30.5-11.7c11.7,0,23.4,4.5,32.3,13.4L200.3,887.5"/>
	<path class="st1" d="M189.7,898L189.7,898c-3-3-6.8-4.4-10.7-4.4c-3.1,0-6.2,0.9-8.8,2.8l-10.6-10.6c5.6-4.7,12.5-7.1,19.4-7.1
		c7.7,0,15.4,2.9,21.3,8.8L189.7,898"/>
	<path class="st2" d="M180.8,906.9l-10.5-10.5c2.6-1.9,5.7-2.8,8.8-2.8c3.9,0,7.7,1.5,10.7,4.4L180.8,906.9"/>
	<polygon class="st22" points="107.5,825.2 121.2,838.9 120.1,846.2 180.8,906.9 177.4,910.3 116.7,849.7 109.3,850.8 95.6,837.1 
		105.9,835.5 	"/>
	<polygon class="st23" points="179.1,908.7 105.9,835.5 105.9,835.5 107.5,825.2 121.2,838.9 120.1,846.2 180.8,906.9 	"/>
</g>
<text transform="matrix(1 0 0 1 439.5186 475.2902)"><tspan x="0" y="0" class="st2 st3 st24">867</tspan><tspan x="180.5" y="0" class="st2 st3 st24 st18">.</tspan><tspan x="205.7" y="0" class="st2 st3 st24">43%</tspan></text>
<text transform="matrix(1 0 0 1 435.4795 522.7663)"><tspan x="0" y="0" class="st11 st3 st12">R</tspan><tspan x="21.3" y="0" class="st11 st3 st12">ETU</tspan><tspan x="85.2" y="0" class="st11 st3 st12">R</tspan><tspan x="106.4" y="0" class="st11 st3 st12">N </tspan><tspan x="139.6" y="0" class="st11 st3 st12">O</tspan><tspan x="164.5" y="0" class="st11 st3 st12">N INVESTMENT </tspan></text>
<text transform="matrix(1 0 0 1 938.3115 428.5329)"><tspan x="0" y="0" class="st11 st15 st16">A $30 million credit union client</tspan><tspan x="-39.9" y="33.3" class="st11 st15 st16">achieved 867.43% ROI in year one from</tspan><tspan x="42" y="66.6" class="st11 st15 st16">an auto loan promotion.</tspan></text>
<g>
	<rect x="1286" y="1300.3" class="st9" width="35.9" height="63.2"/>
	<circle class="st2" cx="1295.6" cy="1333.3" r="1.7"/>
	<path class="st2" d="M1356.1,1293.4l-68.2-43.7c-2-1.6-5.7-1.6-7.7,0l-68.2,43.7c-2.3,3.1-0.1,7.6,3.8,7.6h12.6
		c2.6,0,4.8,2.1,4.8,4.8v53.2c0,2.6,2.1,4.8,4.7,4.8h52.9v-57.9c0-2,1.6-3.6,3.6-3.6h20c2,0,3.6,1.6,3.6,3.6v57.9h11.9
		c2.6,0,4.8-2.1,4.8-4.8v-53.2c0-2.6,2.1-4.8,4.7-4.8h12.6C1356.2,1301,1358.5,1296.5,1356.1,1293.4z M1271.6,1305.7v7.1h-12.1
		v-10.8h8.5C1270,1302.1,1271.6,1303.7,1271.6,1305.7z M1250.1,1302.1h7.9v10.8h-11.5v-7.1
		C1246.4,1303.7,1248.1,1302.1,1250.1,1302.1z M1246.4,1321.2v-6.8h11.5v10.5h-7.9C1248.1,1324.8,1246.4,1323.2,1246.4,1321.2z
		 M1268,1324.8h-8.5v-10.5h12.1v6.8C1271.6,1323.2,1270,1324.8,1268,1324.8z"/>
</g>
<g>
	<rect x="895.7" y="1688.9" class="st25" width="218.3" height="212.5"/>
	<rect x="895.7" y="1688.9" class="st26" width="218.4" height="44.9"/>
	<rect x="652.6" y="1688.9" class="st25" width="218.3" height="212.7"/>
	<rect x="652.6" y="1688.9" class="st26" width="218.4" height="45.1"/>
	<rect x="1138.8" y="1688.9" class="st25" width="218.3" height="212.5"/>
	<rect x="1138.7" y="1688.9" class="st26" width="218.4" height="44.9"/>
	<polygon class="st26" points="1004.8,1756.9 906,1692.5 1103.7,1692.5 	"/>
	<polygon class="st26" points="761.8,1756.9 662.9,1692.5 860.6,1692.5 	"/>
	<rect x="770.9" y="1791.3" class="st27" width="72.4" height="110.2"/>
	<polygon class="st26" points="1247.9,1756.9 1149.1,1692.5 1346.7,1692.5 	"/>
	<rect x="923" y="1863.4" width="72.4" height="38"/>
	<rect x="1013.6" y="1782.5" class="st27" width="72.4" height="118.9"/>
	<rect x="1166.5" y="1855.7" width="72.4" height="45.7"/>
	<rect x="1257.1" y="1799.7" class="st27" width="72.4" height="101.7"/>
	<text transform="matrix(1 0 0 1 661.6299 1716.8273)" class="st1 st3 st28">CUs Under $20 Million</text>
	<g>
		<text transform="matrix(1 0 0 1 919.8486 1714.9435)" class="st1 st3 st28">CUs $20-50 Million</text>
	</g>
	<g>
		<text transform="matrix(1 0 0 1 1158.3291 1714.9435)" class="st1 st3 st28">CUs $50-100 Million</text>
	</g>
	<rect x="681.6" y="1866" width="72.4" height="35.5"/>
	<text transform="matrix(1 0 0 1 773.7324 1786.2482)" class="st27 st3 st29">12.86%</text>
	<text transform="matrix(1 0 0 1 688.9102 1860.7355)" class="st3 st29">4.06%</text>
	<text transform="matrix(1 0 0 1 1017.5205 1777.92)" class="st27 st3 st29">13.57%</text>
	<text transform="matrix(1 0 0 1 930.4424 1858.2657)" class="st3 st29">4.20%</text>
	<text transform="matrix(1 0 0 1 1262.2227 1795.1505)" class="st27 st3 st29">11.14%</text>
	<text transform="matrix(1 0 0 1 1174.9551 1850.5519)" class="st3 st29">5.79%</text>
	<text transform="matrix(1 0 0 1 692.6104 1889.9894)" class="st1 st3 st30">PEERS</text>
	<text transform="matrix(1 0 0 1 934.0234 1886.795)" class="st1 st3 st30">PEERS</text>
	<text transform="matrix(1 0 0 1 1177.5156 1883.6622)" class="st1 st3 st30">PEERS</text>
	<g>
		<text transform="matrix(1 0 0 1 777.418 1843.4406)"><tspan x="0" y="0" class="st1 st3 st31">TwoScore</tspan><tspan x="17.6" y="14.8" class="st1 st3 st31">CUs</tspan></text>
	</g>
	<g>
		<text transform="matrix(1 0 0 1 1019.7666 1839.9103)"><tspan x="0" y="0" class="st1 st3 st31">TwoScore</tspan><tspan x="17.6" y="14.8" class="st1 st3 st31">CUs</tspan></text>
	</g>
	<g>
		<text transform="matrix(1 0 0 1 1263.2461 1848.9738)"><tspan x="0" y="0" class="st1 st3 st31">TwoScore</tspan><tspan x="17.6" y="14.8" class="st1 st3 st31">CUs</tspan></text>
	</g>
</g>
<g>
	<text transform="matrix(1 0 0 1 860.6299 1561.8986)" class="st2 st3 st13">67.52%</text>
</g>
<g>
	<rect x="681.6" y="1941.5" class="st32" width="646.5" height="71.5"/>
	<text transform="matrix(1 0 0 1 697.2222 1958.4484)"><tspan x="0" y="0" class="st11 st15 st16">Our clients achieve 67.52% more annual growth on average </tspan><tspan x="41.1" y="33.3" class="st11 st15 st16">than that of other credit unions in their peer groups.</tspan></text>
</g>
<g>
	<text transform="matrix(1 0 0 1 756.9619 1615.6281)"><tspan x="0" y="0" class="st11 st3 st12">MORE ANNUAL GROWTH THAN </tspan><tspan x="0" y="36.6" class="st11 st3 st12">THAT OF PEER CREDIT UNIONS</tspan></text>
</g>
<g>
	<rect x="98.2" y="1894.8" class="st32" width="423.9" height="152"/>
	<text transform="matrix(1 0 0 1 101.4121 1911.7169)"><tspan x="0" y="0" class="st11 st15 st16">A $58 million credit union client enjoyed </tspan><tspan x="20.9" y="33.3" class="st11 st15 st16">1,674% ROI in year one from an auto </tspan><tspan x="13.1" y="66.6" class="st11 st15 st16">loan promotion, making back their in</tspan><tspan x="394" y="66.6" class="st11 st15 st16">-</tspan><tspan x="36.4" y="99.9" class="st11 st15 st16">vestment in less than one month.</tspan></text>
</g>
</svg>
